<?xml version="1.0" encoding="UTF-8"?>
<svg id="Capa_2" data-name="Capa 2" xmlns="http://www.w3.org/2000/svg" viewBox="0 0 957.56 875.95">
  <defs>
    <style>
      .cls-1 {
        fill: #9fb769;
      }

      .cls-2 {
        fill: #e9762b;
      }

      .cls-3 {
        fill: #1c1a1b;
      }
    </style>
  </defs>
  <g id="Layer_1" data-name="Layer 1">
    <g>
      <path class="cls-1" d="M476.67,95.77l-6.49,16.41c-2.36,5.54-5.13,10.27-8.92,15.41l-40.26,1.17c18.39-32.03,26.5-64.72,41.82-96.85,5.1-10.69,9.43-20.54,14.05-31.91,3.88,6.84,6.97,13.64,9.69,20.86,4.71,12.49,9.99,24.12,16.19,35.99,5.88,11.43,11.81,22.35,16.45,34.29,4.99,12.86,9.89,24.77,16.23,37.69l-43.96-.72-14.79-32.35Z"/>
      <path class="cls-2" d="M720.74,190.87l-16.43,6.44c-5.67,2.05-11.01,3.24-17.36,3.98l-28.31-28.65c35.97-8.38,65.42-24.73,99.37-35.43,11.3-3.56,21.46-7.1,32.92-11.48-2.36,7.5-5.23,14.4-8.66,21.31-5.93,11.96-10.84,23.75-15.29,36.38-4.35,12.09-8.3,23.88-13.88,35.41-6.01,12.42-11.38,24.12-16.51,37.56l-29.45-32.65,13.59-32.87Z"/>
      <path class="cls-2" d="M232.09,195.61l6.44,16.43c2.05,5.67,3.24,11.01,3.98,17.36l-28.65,28.31c-8.38-35.97-24.73-65.42-35.43-99.37-3.56-11.3-7.1-21.46-11.48-32.92,7.5,2.36,14.4,5.23,21.31,8.66,11.96,5.93,23.75,10.84,36.38,15.29,12.09,4.35,23.88,8.3,35.41,13.88,12.42,6.01,24.12,11.38,37.56,16.51l-32.65,29.45-32.87-13.59Z"/>
      <path class="cls-1" d="M477.95,780.17l6.49-16.41c2.36-5.54,5.13-10.27,8.92-15.41l40.26-1.17c-18.39,32.03-26.5,64.72-41.82,96.85-5.1,10.69-9.43,20.54-14.05,31.91-3.88-6.84-6.97-13.64-9.69-20.86-4.71-12.49-9.99-24.12-16.19-35.99-5.88-11.43-11.81-22.35-16.45-34.29-4.99-12.86-9.89-24.77-16.23-37.69l43.96.72,14.79,32.35Z"/>
      <path class="cls-2" d="M233.88,685.08l16.43-6.44c5.67-2.05,11.01-3.24,17.36-3.98l28.31,28.65c-35.97,8.38-65.42,24.73-99.37,35.43-11.3,3.56-21.46,7.1-32.92,11.48,2.36-7.5,5.23-14.4,8.66-21.31,5.93-11.96,10.84-23.75,15.29-36.38,4.35-12.09,8.3-23.88,13.88-35.41,6.01-12.42,11.38-24.12,16.51-37.56l29.45,32.65-13.59,32.87Z"/>
      <path class="cls-2" d="M722.54,680.34l-6.44-16.43c-2.05-5.67-3.24-11.01-3.98-17.36l28.65-28.31c8.38,35.97,24.73,65.42,35.43,99.37,3.56,11.3,7.1,21.46,11.48,32.92-7.5-2.36-14.4-5.23-21.31-8.66-11.96-5.93-23.75-10.84-36.38-15.29-12.09-4.35-23.88-8.3-35.41-13.88-12.42-6.01-24.12-11.38-37.56-16.51l32.65-29.45,32.87,13.59Z"/>
      <g>
        <polygon class="cls-3" points="369.97 90.61 364.92 68.83 347.89 74.87 354.55 95.13 369.97 90.61"/>
        <path class="cls-3" d="M542.89,101.58l37.33,8.77c16.17,2.8,30.21,9.18,45.15,15.36,17.39,7.2,33.13,16.09,48.97,26.38l48.14-22.74c-11.61-9.48-23.4-17.97-37.27-24.74-3.31-1.62-6.75-.45-9.21,1.58l-18.53,15.25c-26.32-13.3-52.44-23.51-80.23-31.45l-6.66-29.33c-6.8-2.57-14.38-3.92-21.93-4.7l-26.57-2.75c4.88,8.17,8.82,16.48,12.1,25.21l8.71,23.16Z"/>
        <path class="cls-3" d="M406.9,128.16l5.55-18.77c-11.59-.24-20.11,2.25-29.75,5.4l-28.5,9.83c-22.34,7.71-41.29,20.54-62.52,32.74l17.66,9.27c14.07-7.2,26.71-15.24,41.18-20.69,18.76-7.07,37.1-12.46,56.39-17.78Z"/>
        <path class="cls-3" d="M547.73,747.79l-5.55,18.77c11.59.24,20.11-2.25,29.75-5.4l28.5-9.83c22.34-7.71,41.29-20.54,62.52-32.74l-17.66-9.27c-14.07,7.2-26.71,15.24-41.18,20.69-18.76,7.07-37.1,12.46-56.39,17.78Z"/>
        <path class="cls-3" d="M344.91,99.77c-2.54-7.87-4.95-14.37-8.19-21.67l-12.5,6.07,8.35,18.41,12.33-2.81Z"/>
        <polygon class="cls-3" points="324.07 107.94 313.36 88.43 297.3 96.73 309.85 114.75 324.07 107.94"/>
        <path class="cls-3" d="M169.51,299.25c6.31,1.24,12.63,2.46,18.98,3.63,5.72-12.52,11.85-24.64,18.34-37.07l-9.95-16.86c-8.08,8.32-12.06,16.24-16.33,25.45l-11.04,24.85Z"/>
        <path class="cls-3" d="M162.66,258.88c-6,11.87-11.36,23.7-16.18,35.67,5.8,1.23,11.63,2.43,17.46,3.6.99-2.37,1.99-4.75,2.99-7.16,7.2-17.39,16.1-33.13,26.38-48.97l-22.74-48.14c-9.48,11.61-17.97,23.4-24.74,37.27-1.62,3.31-.45,6.75,1.58,9.21l15.25,18.53Z"/>
        <path class="cls-3" d="M284.49,154.71l33.29-19.04c13.74-8.97,28.36-13.88,43.5-19.54,17.63-6.59,35.21-10.81,53.81-14.09l19.72-49.46c-14.95.98-29.37,2.8-44.13,7.31-3.53,1.08-5.25,4.27-5.67,7.43l-3.16,23.79c-28.32,8.22-54.39,18.55-80.14,31.69l-24.87-16.91c-6.73,2.76-13.19,6.94-19.25,11.52l-21.31,16.1c9.14,2.65,17.69,6.04,26.04,10.19l22.16,11.01Z"/>
        <polygon class="cls-3" points="808.41 282.84 827.93 272.14 819.62 256.08 801.6 268.63 808.41 282.84"/>
        <path class="cls-3" d="M793.82,303.04c5.84-1.07,11.65-2.18,17.45-3.32-5.26-13.32-11.15-26.31-17.73-39.22l16.91-24.87c-2.76-6.73-6.94-13.19-11.52-19.25l-16.1-21.31c-2.65,9.14-6.04,17.69-10.19,26.04l-11.01,22.16,19.04,33.29c5.56,8.52,9.56,17.37,13.15,26.48Z"/>
        <path class="cls-3" d="M788.31,304.04c-7.77-18.6-18.78-35.25-29.32-53.59l-9.27,17.66c6.86,13.42,14.49,25.54,19.91,39.18,6.24-1.05,12.47-2.13,18.68-3.25Z"/>
        <polygon class="cls-3" points="154.18 267.23 134.81 256.07 127.62 272.64 146.98 281.59 154.18 267.23"/>
        <polygon class="cls-3" points="609.2 72.77 591.79 67.9 588.69 89.64 603.73 94.34 609.2 72.77"/>
        <path class="cls-3" d="M815.49,298.89c7.43-1.47,14.82-3,22.2-4.57l-5.5-11.33-18.41,8.35,1.72,7.54Z"/>
        <path class="cls-3" d="M633.33,81.14l-13.29-4.08-6.44,19.17,10.94,6.35c3.5-7.49,6.18-13.89,8.79-21.44Z"/>
        <path class="cls-3" d="M650.55,165.61l16.86-9.95c-8.32-8.08-16.24-12.06-25.45-16.33l-27.55-12.24c-21.6-9.59-44.21-13.12-68.06-18.68l6.6,18.82c15.2,4.33,29.93,7.07,44.23,12.94,18.54,7.62,35.64,16.18,53.37,25.43Z"/>
        <polygon class="cls-3" points="660.28 93.59 643.71 86.4 634.76 105.76 649.12 112.96 660.28 93.59"/>
        <path class="cls-3" d="M670.14,721.23l-33.29,19.04c-13.74,8.97-28.36,13.88-43.5,19.54-17.63,6.59-35.21,10.81-53.81,14.09l-19.72,49.46c14.95-.98,29.37-2.8,44.13-7.31,3.53-1.08,5.25-4.27,5.67-7.43l3.16-23.79c28.32-8.22,54.39-18.55,80.14-31.69l24.87,16.91c6.73-2.76,13.19-6.94,19.25-11.52l21.31-16.1c-9.14-2.65-17.69-6.04-26.04-10.19l-22.16-11.01Z"/>
        <path class="cls-3" d="M411.74,774.37l-37.33-8.77c-16.17-2.8-30.21-9.18-45.15-15.36-17.39-7.2-33.13-16.1-48.97-26.38l-48.14,22.74c11.61,9.48,23.4,17.97,37.27,24.74,3.31,1.62,6.75.45,9.21-1.58l18.53-15.25c26.32,13.3,52.44,23.51,80.23,31.45l6.66,29.33c6.8,2.57,14.38,3.92,21.93,4.7l26.57,2.75c-4.88-8.17-8.82-16.48-12.1-25.21l-8.71-23.16Z"/>
        <polygon class="cls-3" points="630.56 768.01 641.27 787.52 657.33 779.22 644.77 761.19 630.56 768.01"/>
        <polygon class="cls-3" points="584.66 785.34 589.71 807.12 606.73 801.08 600.08 780.82 584.66 785.34"/>
        <path class="cls-3" d="M786.31,574c.34-.76.65-1.52.97-2.27-6.33-1.14-12.68-2.24-19.05-3.3-6.3,14.19-13.15,27.76-20.44,41.72l9.95,16.86c8.08-8.32,12.06-16.24,16.33-25.45l12.24-27.55Z"/>
        <path class="cls-3" d="M609.72,776.17c2.54,7.87,4.95,14.37,8.19,21.67l12.5-6.07-8.35-18.41-12.33,2.81Z"/>
        <path class="cls-3" d="M791.97,617.07c6.89-13.65,12.95-27.24,18.3-41.04-5.81-1.13-11.64-2.24-17.48-3.31-1.66,4.06-3.38,8.12-5.09,12.24-7.2,17.39-16.1,33.13-26.38,48.97l22.74,48.14c9.48-11.61,17.97-23.4,24.74-37.27,1.62-3.31.45-6.75-1.58-9.21l-15.25-18.53Z"/>
        <path class="cls-3" d="M815,576.96l-4.17,7.18c7.49,3.5,13.89,6.18,21.44,8.79l3.59-11.7c-6.93-1.47-13.88-2.89-20.86-4.27Z"/>
        <polygon class="cls-3" points="800.45 608.72 819.82 619.88 827.01 603.3 807.65 594.36 800.45 608.72"/>
        <polygon class="cls-3" points="146.21 593.1 126.7 603.81 135.01 619.87 153.03 607.32 146.21 593.1"/>
        <path class="cls-3" d="M162.87,578.02c-5.8,1.17-11.59,2.36-17.36,3.59,4.7,11.45,9.87,22.68,15.57,33.85l-16.91,24.87c2.76,6.73,6.94,13.19,11.52,19.25l16.1,21.31c2.65-9.14,6.04-17.69,10.19-26.04l11.01-22.16-19.04-33.29c-4.52-6.92-8-14.06-11.08-21.38Z"/>
        <path class="cls-3" d="M168.5,576.9c7.58,16.62,17.54,31.91,27.13,48.6l9.27-17.66c-6.07-11.86-12.72-22.7-17.93-34.48-6.17,1.15-12.33,2.33-18.47,3.54Z"/>
        <path class="cls-3" d="M142.69,293.72l1.11-1.92c-7.49-3.5-13.89-6.18-21.44-8.79l-1.78,5.78c7.34,1.69,14.7,3.33,22.1,4.92Z"/>
        <path class="cls-3" d="M140.43,582.72c-6.93,1.5-13.83,3.04-20.71,4.63l2.72,5.61,18.41-8.35-.43-1.88Z"/>
        <polygon class="cls-3" points="345.42 803.18 362.84 808.05 365.94 786.31 350.89 781.61 345.42 803.18"/>
        <path class="cls-3" d="M321.29,794.81l13.29,4.08,6.44-19.17-10.94-6.35c-3.5,7.49-6.18,13.89-8.79,21.44Z"/>
        <path class="cls-3" d="M304.08,710.34l-16.86,9.95c8.32,8.08,16.24,12.06,25.45,16.33l27.55,12.24c21.6,9.59,44.21,13.12,68.06,18.68l-6.6-18.82c-15.2-4.33-29.93-7.06-44.23-12.94-18.54-7.62-35.64-16.18-53.37-25.43Z"/>
        <polygon class="cls-3" points="294.34 782.36 310.92 789.55 319.86 770.19 305.5 762.99 294.34 782.36"/>
      </g>
      <path class="cls-3" d="M0,620.06c273.74-108.65,604.06-117.09,885.51-32.62,19.07,5.86,39.13,12.38,57.79,19.4,0,0,7.14,2.63,7.14,2.63l7.12,2.7c-9.98-1.95-19.85-4.19-29.79-6.18-306.96-64.73-622.91-59.71-927.78,14.07h0Z"/>
      <path class="cls-3" d="M957.56,263.78c-278.01,105.05-619.09,107.75-900.45,13.35-16.54-5.61-33.8-12.02-50.05-18.42C7.07,258.7,0,255.89,0,255.89c16.53,3.72,42.33,9.57,59.33,13.17,265.55,57.03,541.72,61.25,808.89,12.41,29.63-5.25,59.88-11.58,89.35-17.69h0Z"/>
      <g>
        <path class="cls-3" d="M105.58,437.97c0-15.55.96-30.87,2.81-45.91-1.47.58-2.94,1.15-4.42,1.73-12.93,5.02-24.75,11.43-37.12,17.8-12.85,6.71-25.44,12.43-38.96,17.52-7.81,2.95-15.18,6.29-22.58,10.49,12.31,4.99,22.97,9.69,34.54,15.2,22.66,10.8,45.57,18.3,68.37,27.71-1.74-14.6-2.65-29.47-2.65-44.54Z"/>
        <path class="cls-3" d="M914.77,421.14c-22.66-10.8-45.57-18.3-68.37-27.71,1.74,14.6,2.65,29.47,2.65,44.54s-.96,30.87-2.81,45.91c1.47-.58,2.94-1.15,4.42-1.73,12.93-5.02,24.75-11.43,37.12-17.8,12.85-6.72,25.44-12.43,38.96-17.52,7.81-2.95,15.18-6.29,22.58-10.49-12.31-4.99-22.97-9.69-34.54-15.2Z"/>
      </g>
      <path class="cls-3" d="M493.62,254.93c-7.3-1.4-12.11-6.83-16.61-11.98-3.99,3.89-7.74,9.61-13.32,11.04-33.56,8.6-70.04,1.26-102.74-7.69-7.27-1.99-13.66-4.39-20.76-7.33l-10.34,9.12-9.97-27.65c11.8.69,21.68-1.75,31.54-7.32l-3.43,15.01c26.06,16.24,70.63,18.25,100.72,16.83,9.02-.42,17.38-9.23,17.12-18.1-.32-10.72-9.26-19.89-19.32-21.09-5.27-.63-10.61,1.91-13.26,5.42-2.85,3.76-3.01,9.45-1.44,13.73,1.44-5.25,2.63-10.74,8.04-12.6,3.04-1.04,10.64-.19,11.76,3.56,1.44,4.8,1.98,11.44.69,16.26-.99,3.69-8.24,6.7-11.7,6.99-7.6.63-13.45-3.44-16.82-8.57-3.92-5.95-5.37-13.52-1.77-20.1,6.67-12.18,22.09-18.76,35.27-13.66,8.77,3.39,14.04,11.36,20.02,18.45,11.59-17.31,23.49-25.81,43.61-16.07,8.53,4.13,13.34,11.98,12.55,21.7-.82,10.11-8.68,18.49-19.11,18.26-9.33-.21-15.85-8.04-13.79-17.43.05-.24.12-.49.19-.74,2.54-8.53,13.93-10.29,19.3-3.2,1.24,1.64,2.31,3.51,3.2,5.5,1.57-5.11-.44-10.38-3.64-13.54-3.47-3.42-8.96-4.77-14.5-3.59-9.6,2.05-18.03,12.76-16.89,23.3.89,8.2,10.1,15.87,18.15,15.7l35-.73c22.7-.47,44.71-5.01,64.07-16.2l-2.68-14.98c9.9,5.9,20.03,7.7,31.99,7.24-4.62,9.76-7.2,17.82-9.82,27.4l-10.95-8.74c-37.84,13.6-79.11,23.7-120.36,15.81ZM411.59,215.86c-3.42,4.59-5.59,10.35-4.37,15.86,1.6,7.25,8.68,10.95,16.25,9.85-7.08-7.2-9.93-16.04-11.88-25.71ZM400.35,223.62c-2.52,3.21-4.11,7.25-3.22,11.11,1.18,5.08,6.4,7.67,11.97,6.9-5.22-5.04-7.32-11.24-8.75-18.01ZM530.04,241.57c7.56,1.1,14.65-2.6,16.25-9.85,1.21-5.51-.95-11.27-4.37-15.86-1.94,9.67-4.8,18.51-11.88,25.71ZM544.4,241.63c5.57.77,10.79-1.82,11.97-6.9.89-3.86-.7-7.89-3.22-11.11-1.43,6.77-3.53,12.97-8.75,18.01Z"/>
      <path class="cls-3" d="M461.01,621.01c7.3,1.4,12.11,6.83,16.61,11.98,3.99-3.89,7.74-9.61,13.32-11.04,33.56-8.6,70.04-1.26,102.74,7.69,7.27,1.99,13.66,4.39,20.76,7.33l10.34-9.12,9.97,27.65c-11.8-.69-21.68,1.75-31.54,7.32l3.43-15.01c-26.06-16.24-70.63-18.25-100.72-16.83-9.02.42-17.38,9.23-17.12,18.1.32,10.72,9.26,19.89,19.32,21.09,5.27.63,10.61-1.91,13.26-5.42,2.85-3.76,3.01-9.45,1.44-13.73-1.44,5.25-2.63,10.74-8.04,12.6-3.04,1.04-10.64.19-11.76-3.56-1.44-4.8-1.98-11.44-.69-16.26.99-3.69,8.24-6.7,11.7-6.99,7.6-.63,13.45,3.44,16.82,8.57,3.92,5.95,5.37,13.52,1.77,20.1-6.67,12.18-22.09,18.76-35.27,13.66-8.77-3.39-14.04-11.36-20.02-18.45-11.59,17.31-23.49,25.81-43.61,16.07-8.53-4.13-13.34-11.98-12.55-21.7.82-10.11,8.68-18.49,19.11-18.26,9.33.21,15.85,8.04,13.79,17.43-.05.24-.12.49-.19.74-2.54,8.53-13.93,10.29-19.3,3.2-1.24-1.64-2.31-3.51-3.2-5.5-1.57,5.11.44,10.38,3.64,13.54,3.47,3.42,8.96,4.77,14.5,3.59,9.6-2.05,18.03-12.76,16.89-23.3-.89-8.2-10.1-15.87-18.15-15.7l-35,.73c-22.7.47-44.71,5.01-64.07,16.2l2.68,14.98c-9.9-5.9-20.03-7.7-31.99-7.24,4.62-9.76,7.2-17.82,9.82-27.4l10.95,8.74c37.84-13.6,79.11-23.7,120.36-15.81ZM543.04,660.09c3.42-4.59,5.59-10.35,4.37-15.86-1.6-7.25-8.68-10.95-16.25-9.85,7.08,7.2,9.93,16.04,11.88,25.71ZM554.27,652.33c2.52-3.21,4.11-7.25,3.22-11.11-1.18-5.08-6.4-7.67-11.97-6.9,5.22,5.04,7.32,11.24,8.75,18.01ZM424.59,634.38c-7.56-1.1-14.65,2.6-16.25,9.85-1.21,5.51.95,11.27,4.37,15.86,1.94-9.67,4.8-18.51,11.88-25.71ZM410.22,634.32c-5.57-.77-10.79,1.82-11.97,6.9-.89,3.86.7,7.89,3.22,11.11,1.43-6.77,3.53-12.97,8.75-18.01Z"/>
      <g>
        <path class="cls-3" d="M472.39,519.01c-1.94,8.71-16.06,5.91-22.68,3.62-3.82,2.15-17.6,2.17-19.33.71-2.63-2.22-6.42-6.04-9.3-8.87,6.83-12.23,8.76-27.21,1.58-39.62-.62-1.07-15.98-19.01-19.73-15.47-2.22,17.56-1.02,33.83,9.63,49.66-7.25,4.91-15.84,4.45-23.59.96-6.11,3.53-14.61,4.89-21.07.83-3.24-2.04-6-5.72-9.13-8.36l3.6-11.71c5.05-16.44,8.57-40.27-2.3-54.9,7.79-12.73,7.75-26.15,6.96-41.07-.37-6.94-4.59-13.16-7.42-20.06,6.71-4.44,14.73-4.27,21.52-1.29,6.98-2.09,14.65-1.16,21.46,2.75,3.42,1.96,6.58,6.84,9.84,10.08-11.14,12.18-10.56,23.48-10.1,38.85,13.9-2.12,16.02-9.87,17.53-22.36,1.12-9.24-1.38-19.64-8.04-26.48,8.08-4.79,16.53-3.43,24.63-1.36,4.39-2.06,20.26.62,21.75,2.15l9.2,9.45c-19.58,13.78-6.12,25.71-17.93,52.28-2.32,5.21-4.97,9.58-11.31,10.92,23.29,26.83,21.36,19.41,26.75,53.55.98,6.23,2.69,11.4,7.46,15.75ZM450.05,472.17c-5.36-12.4-14.05-22.75-24.39-31.6,13.33-5.62,17.39-10.54,18.38-24.75l1.53-21.96c.44-6.29,3.49-11.14,8.57-15.9l-6.73-1.75c-3.42-.89-8.38.73-11.48,1.35-6.75-2.1-13.78-4.13-20.29-.67,8.3,7.89,7.51,39.39-.39,45.13-6.84,4.97-15.09,6.46-23.36,5.46l.3-29.09c.08-7.92,2.81-14.69,8.2-20.97-8.61-3.07-9.99-4.97-19.15-1.43-8.28-3.52-9.75-3.08-18.99-.38,8.31,21.79,8.2,25.33,5.2,47.88-.61,4.57-2.16,8.43-4.98,12.08,8.57,12.04,6.4,39.45,2.72,53.05l-3.39,12.49c5.79,4.91,12.43-.56,18-.66,6.69-.12,14.56,5.04,21.33-.46-10.05-14.53-11.18-33.75-8.52-51.26,5.39.27,11.86-.03,15.75,3.67,5.4,5.14,10.29,10.8,14.53,16.97,3.86,5.62,4.71,13.17,5.66,19.86,1.23,8.67-.74,17.15-3.69,24.74,5.91,1.69,11.73-.03,16.35-2.29,6.72,3.45,14.69,5.38,21.32.85-11.06-10.63-6.64-26.84-12.48-40.34ZM206.12,533.63c-5.32,2.81-18.62,6.64-22.8,2.01-5.32,5.58-15,7.85-22.47,4.91l-8.34-11.4c7.75-20.96,11.09-43.86,8.99-66.58-.68-7.3-3.63-13.42-8.23-19.07,6.5-5.96,8.22-13.62,8.16-21.93l-.05-7.86-.51-18.36c-10.29,2.47-14.09,12.73-19.87,21.37-10.94-17.41-9.77-16.66-9.07-39.7.41-13.62,2.85-12.78,1.05-26.99-.82-6.42-.46-12.97.13-20.63,5.97,3.78,10.99,7.12,17.42,9.54,18.07,6.81,46.28,13.42,65.74,11.09l8.75,15.31c3.89,6.8-1.2,16.22-.81,23.76.49,9.57,2.02,18.66-.15,28.51-7.91-8.64-15.71-18.01-27.52-16.1l.56,35.26c.05,2.9.44,8.31,1.76,10.5l5.68,9.41c-4.97,6.1-7.86,12.89-8.22,20.84-.8,17.72,1.94,39.5,9.81,56.13ZM194.93,520.95c-7.72-16.03-9.51-43.08-8.53-59.6.39-6.5,2.72-12.18,6.44-17.14-3.41-4.06-5.45-9.39-5.57-15.14l-.88-43.01c12.83-2.7,22.38,8.84,28.42,15.16l-.75-26.13c-.2-7.03,2.37-14.47,1.76-22.38-19.61,3.42-62.5-6.19-81.57-18.43l.53,19.52c.05,1.81,1.99,5.64,1.53,7.39-2.91,11.08-3.62,21.52-1.66,32.85,2.05-4.88,4.64-9.4,8.85-12.97,5.08-4.3,13.32-4.6,18.65-.25,1.07,16.75,1.01,33.05.55,49.76-.13,4.87-3.01,9.75-5.2,13.31,3.86,5.77,6.34,12.28,6.39,19.34.14,20.51-.52,45.23-7.87,64.14,7.15.35,13.04-1.34,18.44-5.65,6.54,3.59,14.13,2.4,20.46-.77ZM565.9,491.65c4.66,6.62,6.95,14.01,4.42,21.83-6.63-3.62-13.99-5.15-21.75-4.27l-20.79,2.34c-7.3.82-14.04-1.63-19.86-5.42-5.38,2.67-11.71,4.64-17.72,2.06-2.97-2.06-6.46-5.91-9.52-8.92,2.89-9.3,4.22-18.05,3.64-27.51l-2-32.33c-.46-7.39,8.91-39.19-3.65-60.52,7.2-2.35,13.27-1.32,19.62.86,19.95-8.22,23.77-2.42,44.61-1.82,7,.2,12.97-.77,18.7-5.9l8.69,8.71c2.18,7.48.42,14.61-3.47,20.89,2.14,7.43,2.91,15.19-.91,22.47-5.1-4.04-9.55-7.73-14.83-10.56-8.96-4.81-20.06-4.85-28.52.88-3.6,2.44-3.84,7.34-3.67,11.66,8.27.52,16.1-2.53,22.34-8.34,2.76,3.52,6.87,7.03,8.92,10.63,3.04,6.67.49,13.66-1.9,19.85,4.08,5.29,4.4,11.33,2.5,18.13l7.68-5.41c2.65,2.89,6.45,6.51,8.46,9.41,3.04,6.76,2.19,14.22-1,21.28ZM557.49,464.51c-11.3,9.21-24.68,14.75-39.3,12.5-2.65-.41-6.78-1.74-7.69-4.05-2.79-7.09-2.92-13.69-.62-20.95,10.56-.76,23.05.15,30.29,6.18,2.38-6.48,2.38-13.48-2.53-18.64,2.73-6.15,4.69-11.9,2.8-17.91-6.28,6.78-26.57,9.3-29.84,5.34-2.52-3.05-3.97-17.84,1.3-22.32,5.7-4.85,14.91-6.05,22.15-4.61,8.9,1.76,16.68,7.02,22.67,12.78,3.55-6.79-.48-13.97.21-20.47.56-5.21,6.38-10.69,3.23-16.15-6.17,4.17-18.1,4.03-24.66,3.18-31.59-4.11-24.16-.03-37.47,2.35-4.59.82-10.99-5.1-15.78-1.1,1.72,5.86,4.39,12.84,4.46,18.92l.22,19.19c.08,6.78-3.92,14.11-3.4,20.72,1.08,13.81,4.19,26.94,2.32,40.94l-2.39,18.01c5.43,1.86,10.71-.22,15.91-3.52,18.79,14.29,39.1-3.83,61.02,6.14,2.74-6.86-1.66-12.81-4.98-18.2,1.54-5.61,4.27-12.09,2.07-18.33ZM546.9,468.41c-6.69-5.52-19.5-6.38-27.19-5.75-.94,4.74-1.02,8.03-.29,12.48,10.05.57,18.91-.72,27.48-6.73ZM755.41,510.56c.03,7.35,3.7,13.35,7.37,19.54-2.52,5.54-11.29,6-16.22,2.45l-6.99-5.04c-6.33,4.07-12.91,2.6-19.3-.04-10.76-4.45-7.69-7.94-15.71-15.71,11.05-12.47,14.27-38.85,17.09-56.09l4.28-26.23,8.03-48.59c1.35-8.15-2.29-15.12-9.56-19.72,8.41-8.13,23.2-17.11,35.07-10.49,5.64-4.14,11.45-8.32,19.17-8.77,3.98-.23,11.51.43,14.56,3.22,3.78,3.45,6.47,8.48,9.66,12.78-5.1,7.43-7.97,15.69-7.3,24.78,1.09,14.72,3.13,28.75,5.31,43.5,3.82,25.83,7.2,50.84,9.31,76.92,1.12,13.9,4.98,26.25,12.95,38.24-4.74,7.2-14.83,6.72-20.52.31-.57-.64-1.96-1.64-2.63-1.95s-2.29,1.77-3.24,1.98c-9.94,2.15-20.76-4.07-25.37-13.43-1.55-3.14-3.95-6.19-5.86-8.84,9.8-5.21,10.2-23.17,8.65-32.86l-18.85-1.47.11,25.51ZM745.32,469.81l28.85,1.59c2.93,9.72,4.38,42.64-3.15,49.69,6.15,4.71,14.97,5.63,20.32-.05l6.36,5.56c4.23,3.69,10.88,2.93,13.92-1.45-6.26-9.26-9.55-19.38-10.66-30.59-2.69-26.93-5.74-53-10.05-79.79-2.32-14.44-4.19-28.1-5.37-42.54-.71-8.79.94-17.06,5.22-25.38-14.31-4.86-19.02-1.69-31.54,7.17-10.71-6.18-20.56-1.7-30.26,6.03,5.19,4.02,7.55,10.07,7.01,16.91-1.14,14.55-4.02,28.29-6.6,42.79l-13.55,76.22c-1,5.63-4.09,10.04-7.08,15.06,8.25,3.97,13.22,6.37,22,.71l7.85,5.5c4.02,2.82,9.37,2.58,12.71-.44-7.67-10.6-6.79-33.66-5.97-47ZM771.04,443.66l-22.51-.04,11.54-59.64c3.74,15.45,6.48,30.47,8.88,46.08l2.09,13.59ZM768.51,440.12l-2.87-17.93-3.71,18.24,6.58-.31ZM292.11,506.58c8.31-4.76,11.09-18.47,8.75-27.62l-18.95.85c-.07,11.58-2.98,28.06,7.68,36.36-4.81,7.72-14.96,8.87-23.23,3.84-7.44,6.38-18.02,7.89-26.85,3.34l-8.42-9.67c7.1-10.44,10.65-21.95,12.78-34.27l9.68-55.82c2.39-13.78,6.22-27.03,7.02-40.89.43-7.43-5.23-12.8-9.71-18.37,13.02-5.98,23.82-6.1,35.41,2.12,6.7-1.96,13.23-2.78,20.02-.73,15.47,4.68,14.1,6.8,23.52,18.07-4.73,4.48-8.13,10.07-7.34,16.88,1.24,10.58,3.09,20.72,5.28,31.22,3.93,18.83,7.34,37.16,9.88,56.21,1.21,9.08,4.98,16.05,13.01,22.22-6.11,6.6-15.52,8.3-23.4,3.96-6.94,5.42-18.15,6.76-25.81,1.31-3.2-2.28-6.16-6.09-9.33-9.03ZM300.74,466.8c2.54,6.61,2.14,13.35,2.06,20.11-.09,7.41-.12,14.52-5.01,20.33,7.83,2.04,14.82.39,20.83-4.73,6.42,4.93,14.18,4.86,20.2-.69-6.1-5.01-9.64-11.82-10.79-19.81-2.83-19.58-5.99-38.47-10.14-57.89-2.47-11.58-4.44-22.69-5.6-34.35-.64-6.42,1.62-12.27,5.11-16.91-16.26-7.82-14.11-7.64-31.69-3.81-10.68-6.97-17.95-10-30.14-3.93,5.15,5.53,7.6,12.13,6.62,19.55l-1.48,11.2-10.93,59.17-7.13,38.4c-1.28,6.88-4.15,12.96-7.57,18.83,8.09,3.09,16.32,1.26,22.25-4.81,6.37,4.72,14.8,6.28,20.36.23-7.72-7.65-6.44-28.64-5.91-40.25l28.96-.65ZM297.63,444.39c-8.06.44-14.79.29-22.59-.16l11.65-49.19c4.86,17.17,7.64,31.62,10.94,49.35ZM295.18,441.68l-3.15-15.07-3.35,15.53,6.5-.47ZM644.61,506.04c10.69-11.54,8.06-21.68,6.34-37.85-3.4-2-7.39-2.52-11.51-2.41-1.03,12.71-1.76,25,.46,37.74.72,4.11,5.24,7.37,7.94,11.39-7.07,4.62-16.21,3.64-23.52-1.28-10.18,4.97-21.8,1.46-28.64-7.29-1.64-2.1-3.48-3.88-5.41-5.88,12.44-9.58,10.96-36.71,10.51-51.44-.19-6.17-5.13-11.19-10.16-14.64,11.5-7.37,10.19-23.9,9.69-35.59-.42-9.59-1.59-18.61-10.4-24.64,9.54-3.58,17.84-3.31,27.04-2.93,12.46-5.95,33.32-7.92,47.2-5.5,6.6,1.31,19.35,16.8,22.18,21.7,11.2,19.39,9.82,54.62-9.84,67.23,9.49,12.23,12.85,17.79,14.13,34.18l1.69,21.54,7.12,9.85c-7.82,5.54-16.79,3.72-23.68-1.35-2.99,1.08-6.9,2.4-10.2,1.71-15.62-3.26-10.35-3.03-20.92-14.56ZM647.03,458.51c4.78,3.87,7.1,10.18,7.12,16.02l.05,15.31c.02,5.91-1.52,10.55-5.6,15.58,17.12,6.13,14.2-3.09,22.7,2.04,5.32,3.22,11.53,3.41,16.76-.19-11.75-9.81-3.15-21.92-10.82-45.5-3.03-9.31-9.91-14.67-19.82-16.06,6.51-1.67,11.01-3.53,15.03-7.94,19.49-21.35,10.81-68.89-10.63-70.18-13.75-.83-28.41-1.54-40.42,4.25l-5.29,2.55c-7.03-1.81-14.76-2.24-21.98.89,5.78,3.36,6.8,9.52,7.07,15.86l.76,17.98c.28,6.57.25,23.29-6.7,25.24,4.78,2.95,6.77,7.88,7.16,13.27,1.1,14.95.34,29.5-2.98,44.24-.65,2.9-3.13,5.92-5.08,8.7,6.12,4.76,14.56,4.59,21.19.47,6.25,4.36,13.52,5.29,20.73,3.09-2.53-3.6-6.05-6.99-6.74-10.86-2.37-13.32-1.7-25.96-.22-39.22,6.4-.27,12.55.26,17.71,4.44ZM649.11,429.6c-5.32,3.61-16.3,4.18-19.03,2.15-.93-.69-1.53-3.15-1.55-4.56l-.43-41.92c10.34-2.97,23.13-2.82,25.98,9.15,1.66,6.95.94,14.12.17,21.32-.53,4.95-.15,10.48-5.14,13.86ZM651.81,395.29c-4.66-.55-8.41-.34-13.06.6l-.03,33.8c3.16.61,7.43-.38,9.98-2.71,5.51-5.05,5.04-23.65,3.11-31.69Z"/>
        <path class="cls-3" d="M554.81,470.07c-12.52,8.98-25.65,12.39-39.84,9.49-4.1-.84-7.56-3.79-8.43-8.15-1.25-6.3-3.69-23.67,6.91-22.93l12.55.88c4.07.29,8.14,2.07,12.31,3.7,1.45-4.57-.52-8.74-3.95-11.89l3.9-13.36c-8.95,2.92-17.88,5.78-26.78,3.12-7.92-2.36-7.4-23.68-2.17-28.02,10.76-8.92,26.47-7.91,37.99-.97l7.6,4.58c-.1-6.22-1.35-9.77-1.94-14.54.56-2.87,5.21-6.33,4.3-10.43-20.1,6.5-36.01-5.08-56.46,2.6l-7.44,8.42,8.09,4.97-6.04,6.04,6.65,7.23-6.78,3.42,5.15,6.41-5.09,5.96,4.79,5.51-5.47,7.12,5.83,4.97-5.92,7.76,5.42,6.42-5.92,6.96,7.04,6.6-7.19,7.48,6.22,11.55c4.52,3.7,13.44,7.18,18.98,6.46l16.59-2.13c7.55-.97,14.23-.29,22.29.79-1.22-5.56-4.31-9.57-6.7-13.4,1.8-3.89,3.85-8.08,3.5-12.62ZM527.44,437.55c1,0,1.82.81,1.82,1.82s-.81,1.82-1.82,1.82-1.82-.81-1.82-1.82.81-1.82,1.82-1.82ZM517.13,437.55c1,0,1.82.81,1.82,1.82s-.81,1.82-1.82,1.82-1.82-.81-1.82-1.82.81-1.82,1.82-1.82ZM545,391.03c1,0,1.82.81,1.82,1.82s-.81,1.82-1.82,1.82-1.82-.81-1.82-1.82.81-1.82,1.82-1.82ZM533.29,387.39c1,0,1.82.81,1.82,1.82s-.81,1.82-1.82,1.82-1.82-.81-1.82-1.82.81-1.82,1.82-1.82ZM518.36,387.81c1,0,1.82.81,1.82,1.82s-.81,1.82-1.82,1.82-1.82-.81-1.82-1.82.81-1.82,1.82-1.82ZM506.52,435.21c1,0,1.82.81,1.82,1.82s-.81,1.82-1.82,1.82-1.82-.81-1.82-1.82.81-1.82,1.82-1.82ZM503.44,392.42c0-1,.81-1.82,1.82-1.82s1.82.81,1.82,1.82-.81,1.82-1.82,1.82-1.82-.81-1.82-1.82ZM505.89,484.72c-1,0-1.82-.81-1.82-1.82s.81-1.82,1.82-1.82,1.82.81,1.82,1.82-.81,1.82-1.82,1.82ZM515.32,489.66c-1,0-1.82-.81-1.82-1.82s.81-1.82,1.82-1.82,1.82.81,1.82,1.82-.81,1.82-1.82,1.82ZM524.47,489.03c-1,0-1.82-.81-1.82-1.82s.81-1.82,1.82-1.82,1.82.81,1.82,1.82-.81,1.82-1.82,1.82ZM539.54,488.36c-1,0-1.82-.81-1.82-1.82s.81-1.82,1.82-1.82,1.82.81,1.82,1.82-.81,1.82-1.82,1.82ZM730.05,506.56c-3.8,5.16-10.67,5.42-15.42,1.97,2.1-5.76,4.84-12.21,5.94-18.44l6.02-34.08,5.93-35.88c2.65-16.02,11.37-48.78,2.56-60.85,4.01-2.97,9.47-4.96,15.42-4.1l2.2,12.96-9.14,11.21,5.36,12.23-7.95,9.41,4.08,12.13-8.37,9.69,4.39,9.22-8.15,10.34,4.2,10.26-7.55,7.29,3.73,11.69-7.76,3.98,4.58,12.55-7.25,5.92,7.18,12.49ZM498.25,491.46c-3.55,2.56-7.16,4.63-11.9,4.24,5.32-19.3-1.81-37.87.5-56.32l3.54-28.28c1.22-9.71-1.05-18.87-4.39-28.34,4.01-.31,7.4.64,10.98,2.82l-6.57,7.43,7.96,4.89-5.63,5.63,6.18,6.72-6.63,3.35,5.64,7.01-5.13,6,4.84,5.57-5.62,7.32,5.84,4.97-5.75,7.54,5.37,6.35-6.05,7.11,6.96,6.52-6.81,7.09,6.66,12.36ZM650.77,449.19c-.35-1.83-.58-4.72-.68-7.14,10.98.22,20.4-5.27,25.52-15.63,10.25-20.74,2.95-50.79-10.63-53.78-14.42-3.17-36.27-1.41-47.82,5.41l-3.85,9.19,6.92,8.71-7.05,6.17,5.72,8.41-6.37,9.44,6.36,7.32-5.98,11.93,5.28,6.09-5.9,9.91,5.86,10.08-6.65,9.26,7.44,9.49-7.34,10.07,4.98,4.16c4.21,2.14,8.7,4.03,13.07,3.65l-3.3-10.19c-1.03-13.88-1.05-26.82.59-41.03,5.08-.31,10.17-.28,15.2,1.1,19.88,5.43,17.23,37.28,13.04,51.53,4.17,2.19,8.59-1,11.78-1.33,4.87,1.33,9.24,6.21,14.89,3.84-9.36-21.55,5.98-54.07-31.1-56.67ZM658.17,435.09c-1,0-1.82-.81-1.82-1.82s.81-1.82,1.82-1.82,1.82.81,1.82,1.82-.81,1.82-1.82,1.82ZM662.38,427.44c-1,0-1.82-.81-1.82-1.82s.81-1.82,1.82-1.82,1.82.81,1.82,1.82-.81,1.82-1.82,1.82ZM671.12,415.64c1,0,1.82.81,1.82,1.82s-.81,1.82-1.82,1.82-1.82-.81-1.82-1.82.81-1.82,1.82-1.82ZM669.01,392.8c1,0,1.82.81,1.82,1.82s-.81,1.82-1.82,1.82-1.82-.81-1.82-1.82.81-1.82,1.82-1.82ZM665.54,408.72c0,1-.81,1.82-1.82,1.82s-1.82-.81-1.82-1.82.81-1.82,1.82-1.82,1.82.81,1.82,1.82ZM660.65,385.91c1,0,1.82.81,1.82,1.82s-.81,1.82-1.82,1.82-1.82-.81-1.82-1.82.81-1.82,1.82-1.82ZM654.28,374.05c1,0,1.82.81,1.82,1.82s-.81,1.82-1.82,1.82-1.82-.81-1.82-1.82.81-1.82,1.82-1.82ZM643.75,373.09c1,0,1.82.81,1.82,1.82s-.81,1.82-1.82,1.82-1.82-.81-1.82-1.82.81-1.82,1.82-1.82ZM625.38,444.34c-1,0-1.82-.81-1.82-1.82s.81-1.82,1.82-1.82,1.82.81,1.82,1.82-.81,1.82-1.82,1.82ZM639.8,443.77c-1,0-1.82-.81-1.82-1.82s.81-1.82,1.82-1.82,1.82.81,1.82,1.82-.81,1.82-1.82,1.82ZM649.82,433.71c-6.27,3.25-13.17,3.05-19.9,2.43-2.35-2.22-4.23-5.48-4.24-8.91l-.11-44.56c5.23-1.08,10.12-2.11,15.09-2.3,8.66-.33,15.24,5.57,16.67,14,1.47,8.61.91,17.16.04,26-.5,5.05-2.38,10.67-7.55,13.34ZM659.32,462.01c-1,0-1.82-.81-1.82-1.82s.81-1.82,1.82-1.82,1.82.81,1.82,1.82-.81,1.82-1.82,1.82ZM665.41,495.24c-1,0-1.82-.81-1.82-1.82s.81-1.82,1.82-1.82,1.82.81,1.82,1.82-.81,1.82-1.82,1.82ZM665.41,470.27c0-1,.81-1.82,1.82-1.82s1.82.81,1.82,1.82-.81,1.82-1.82,1.82-1.82-.81-1.82-1.82ZM671.91,482.26c0,1-.81,1.82-1.82,1.82s-1.82-.81-1.82-1.82.81-1.82,1.82-1.82,1.82.81,1.82,1.82ZM429.39,448.49c-4.07-4.27-9.81-7.02-14.38-10.21,12.48-3.73,25.4-6.82,26.31-22.57l1.2-20.84c.33-5.71,2.38-10.26,5.39-15.3-3.77-.58-8.59.86-12.08,1.81-4.81-2.04-9.98-4.3-15.02-2.23,6.54,11.93,5.51,39.37-4.35,45.78-8.17,5.31-17.45,6.57-26.97,5.6l-.09-28.07c-.03-8.41,2.38-16.15,6.12-23.53-4.51-2.12-9.86-1.23-13.73,1.06l-5.15-1.92,8.02,16.37-6.85,6.84,6.98,7.99-5.91,6.43,5.56,6.5-6.18,8.33,5.65,4.49-6.19,9.28,6.36,6.54-6.16,6.72,5.5,6.39-6.59,5.07,6.54,5.78-5.75,6.9,7.93,5.36-9.52,10.11c8.87-2.06,12.35,3.79,20.72,1.41-7.95-14.35-9.48-34.39-6.51-49.23,1.38-6.91,17.2-2.58,20,.37,5.51,5.83,11.24,11.67,15.36,18.51,7.92,13.14,7.15,28.69,4.11,43.29,4.18-.15,8.72-1.9,12.28-3.17,4.81,2.43,9.91,4.91,15.65,3.16-7.83-11.74-5.44-32.54-11.93-43.09-4.51-7.32-10.38-13.71-16.32-19.94ZM436.76,396.51c0,1-.81,1.82-1.82,1.82s-1.82-.81-1.82-1.82.81-1.82,1.82-1.82,1.82.81,1.82,1.82ZM433.95,387.01c1,0,1.82.81,1.82,1.82s-.81,1.82-1.82,1.82-1.82-.81-1.82-1.82.81-1.82,1.82-1.82ZM433.62,405.61c1,0,1.82.81,1.82,1.82s-.81,1.82-1.82,1.82-1.82-.81-1.82-1.82.81-1.82,1.82-1.82ZM426.18,422.23c1,0,1.82.81,1.82,1.82s-.81,1.82-1.82,1.82-1.82-.81-1.82-1.82.81-1.82,1.82-1.82ZM392.91,438.25c-1,0-1.82-.81-1.82-1.82s.81-1.82,1.82-1.82,1.82.81,1.82,1.82-.81,1.82-1.82,1.82ZM406.52,440.29c-1,0-1.82-.81-1.82-1.82s.81-1.82,1.82-1.82,1.82.81,1.82,1.82-.81,1.82-1.82,1.82ZM434.35,466.6c-1,0-1.82-.81-1.82-1.82s.81-1.82,1.82-1.82,1.82.81,1.82,1.82-.81,1.82-1.82,1.82ZM436.69,477.44c0-1,.81-1.82,1.82-1.82s1.82.81,1.82,1.82-.81,1.82-1.82,1.82-1.82-.81-1.82-1.82ZM439.22,493.62c-1,0-1.82-.81-1.82-1.82s.81-1.82,1.82-1.82,1.82.81,1.82,1.82-.81,1.82-1.82,1.82ZM444.41,503.69c-1,0-1.82-.81-1.82-1.82s.81-1.82,1.82-1.82,1.82.81,1.82,1.82-.81,1.82-1.82,1.82ZM613.74,498.39c-3.77,2.21-10.58,3.26-14.25,1.2,6.62-11.72,7.15-37.14,6.23-49.76-.39-5.34-2.89-10.38-4.91-15.12,1.35-3.48,3.63-8.2,3.88-12.22.71-11.38,1.14-34.68-3.82-45.13,4.26-1.03,9.37-1.13,14.06,1.07l-3.81,9.11,6.5,8.17-6.95,6.08,5.95,8.74-6.47,9.58,6.48,7.46-5.98,11.93,5.22,6.02-5.77,9.69,5.81,9.98-6.77,9.42,7.44,9.48-7.54,10.35,4.71,3.94ZM371.13,499.59c-1.73.61-3.57.5-5.24-1.06,5.55-20.47,10.27-41.5-.25-61.04,6.12-8.99,7.3-30.61,6.41-40.91-.56-6.44-3.44-12.06-5.56-18.41,1.05-.97,4.67-1.49,7.63-.91l8.23,16.81-7.15,7.13,7.03,8.05-5.9,6.42,5.67,6.63-6.37,8.59,5.72,4.55-6.07,9.11,6.18,6.36-6.09,6.64,5.29,6.15-6.83,5.25,6.88,6.08-5.92,7.1,7.82,5.28-11.5,12.21ZM314.15,418.73c-2.51-12.01-7.57-34.51-1.65-44.95-5.39-3.8-12.22-4.52-18.64-2.94l-7.91,1.95-6.02-3.7c-.2-.11-.41-.2-.61-.31l2.56,11.67-8.96,7.22,4.74,11.93-7.69,6.87,3.78,10.75-7.97,8.26,3.92,8.28-7.9,9.36,4.12,9.8-7.61,7.07,4,10.82-7.58,4.23,4.01,10.46-7.31,7.12,7.05,10.01c3.9,3.13,10.55,5.29,14.54,3.91-5.59-14.27-4.24-27.85-3.66-43.08l33.31-.4c4.48,13.29,5.28,27.42.7,40.75,6.1,1.67,10.62-3.63,15-5.09,4.76.96,9.59,5.89,15.18,2.36-4.29-4.88-7.04-10.59-7.96-17.02-3.17-22.15-6.88-43.47-11.44-65.34ZM296.46,379.49c1,0,1.82.81,1.82,1.82s-.81,1.82-1.82,1.82-1.82-.81-1.82-1.82.81-1.82,1.82-1.82ZM276.52,458.81c-1,0-1.82-.81-1.82-1.82s.81-1.82,1.82-1.82,1.82.81,1.82,1.82-.81,1.82-1.82,1.82ZM287.51,457.3c-1,0-1.82-.81-1.82-1.82s.81-1.82,1.82-1.82,1.82.81,1.82,1.82-.81,1.82-1.82,1.82ZM297.29,458.5c-1,0-1.82-.81-1.82-1.82s.81-1.82,1.82-1.82,1.82.81,1.82,1.82-.81,1.82-1.82,1.82ZM271.47,447.73l15.51-66.32,12.88,55.89,1.02,10.68-29.41-.26ZM300.89,410.25c0-1,.81-1.82,1.82-1.82s1.82.81,1.82,1.82-.81,1.82-1.82,1.82-1.82-.81-1.82-1.82ZM304.79,427.11c-1,0-1.82-.81-1.82-1.82s.81-1.82,1.82-1.82,1.82.81,1.82,1.82-.81,1.82-1.82,1.82ZM308.02,440.28c0-1,.81-1.82,1.82-1.82s1.82.81,1.82,1.82-.81,1.82-1.82,1.82-1.82-.81-1.82-1.82ZM308.96,452.67c0-1,.81-1.82,1.82-1.82s1.82.81,1.82,1.82-.81,1.82-1.82,1.82-1.82-.81-1.82-1.82ZM312.6,465.33c1,0,1.82.81,1.82,1.82s-.81,1.82-1.82,1.82-1.82-.81-1.82-1.82.81-1.82,1.82-1.82ZM311.3,477.3c0-1,.81-1.82,1.82-1.82s1.82.81,1.82,1.82-.81,1.82-1.82,1.82-1.82-.81-1.82-1.82ZM315.56,494.31c-1,0-1.82-.81-1.82-1.82s.81-1.82,1.82-1.82,1.82.81,1.82,1.82-.81,1.82-1.82,1.82ZM168.61,504.31l6.8-12.59-6.87-10.38,6.86-11.54-6.84-10.95,6.82-12.6-5.95-7.65,6-13.21-6.16-9.08,6.14-10.96-7-11.02,8.24-6.8-8.31-10.5,9.97-8.31-9.91-9.71,4.19-5.54c-11.98-3.03-24.25-6.64-35.45-11.96-.91,6.6,1.81,12.96,1.84,19,.03,7.15-3.43,14.11-2.25,21.38,3.79-4.83,8-8.28,13.04-9.09,4.93-.8,10.59,1.18,14.61,4.76,1.05,14.72,1.55,29.11,1.75,44.09.1,7.77-2.26,15.21-4.01,22.47,9.33,17.51,3.02,57.64-1.23,78.08,4.36-.01,10.49-1.69,12.7-6.23l-4.98-11.66ZM144.18,358.91c-1,0-1.82-.81-1.82-1.82s.81-1.82,1.82-1.82,1.82.81,1.82,1.82-.81,1.82-1.82,1.82ZM161.58,365.45c-1,0-1.82-.81-1.82-1.82s.81-1.82,1.82-1.82,1.82.81,1.82,1.82-.81,1.82-1.82,1.82ZM255.6,501.84c-2.91,5.36-9.12,8.51-14.96,6.96,3.26-8,5.65-15.29,7.08-23.38l10.72-60.54,6.7-35.7c1.49-7.95.23-15.44-3.69-23.03,4.96-1.25,10.19-.7,15.7,1.63l2.62,11.93-9.13,7.36,4.77,11.99-7.65,6.84,3.81,10.84-8.07,8.36,3.96,8.36-7.86,9.31,4.05,9.65-7.56,7.03,3.87,10.48-7.59,4.23,4.15,10.83-7.57,7.38,6.66,9.46ZM798.72,498.21c-3.06-30.03-6.59-59.2-11.36-89.01-2.71-16.91-7.44-43.47-1.65-59.39-4.9-1.95-11.01-1.65-15.72,1.38l-10.95,7.06-5.41-2.36c-.38-.12-.76-.22-1.14-.32l2.22,13.1-8.95,10.98,5.37,12.25-8.02,9.49,4.09,12.14-8.26,9.57,4.36,9.16-8.19,10.4,4.26,10.43-7.62,7.36,3.86,12.1-7.7,3.95,4.47,12.24-7.05,5.75,5.86,10.2s0,0,0,0l.17.3.21.37c2.81,4.89,8.37,9.02,14.77,8.96-4.92-17.88-4.48-31.19-3.35-49.22l32.97,1.5c4.24,17.26,5.35,34.59.76,52.07,4.95,2.01,10.66.58,14.05-4.1l7.1,6.41c2.1,1.9,5.59,2.78,8.59,2.15-4.03-8.32-6.81-15.77-7.74-24.95ZM772.76,377.69c1,0,1.82.81,1.82,1.82s-.81,1.82-1.82,1.82-1.82-.81-1.82-1.82.81-1.82,1.82-1.82ZM769.37,362.76c1,0,1.82.81,1.82,1.82s-.81,1.82-1.82,1.82-1.82-.81-1.82-1.82.81-1.82,1.82-1.82ZM750.03,460.01c-1,0-1.82-.81-1.82-1.82s.81-1.82,1.82-1.82,1.82.81,1.82,1.82-.81,1.82-1.82,1.82ZM760.67,458.87c-1,0-1.82-.81-1.82-1.82s.81-1.82,1.82-1.82,1.82.81,1.82,1.82-.81,1.82-1.82,1.82ZM770.55,460.01c-1,0-1.82-.81-1.82-1.82s.81-1.82,1.82-1.82,1.82.81,1.82,1.82-.81,1.82-1.82,1.82ZM745.03,447.46l15.37-79.58,13.05,68.79c.61,3.19.42,5.75.6,11.06l-29.02-.27ZM774.04,399.38c0-1,.81-1.82,1.82-1.82s1.82.81,1.82,1.82-.81,1.82-1.82,1.82-1.82-.81-1.82-1.82ZM777.68,420.15c-1,0-1.82-.81-1.82-1.82s.81-1.82,1.82-1.82,1.82.81,1.82,1.82-.81,1.82-1.82,1.82ZM781.05,437.62c0-1,.81-1.82,1.82-1.82s1.82.81,1.82,1.82-.81,1.82-1.82,1.82-1.82-.81-1.82-1.82ZM782.08,453.85c0-1,.81-1.82,1.82-1.82s1.82.81,1.82,1.82-.81,1.82-1.82,1.82-1.82-.81-1.82-1.82ZM783.9,473.06c0-1,.81-1.82,1.82-1.82s1.82.81,1.82,1.82-.81,1.82-1.82,1.82-1.82-.81-1.82-1.82ZM784.45,486.64c0-1,.81-1.82,1.82-1.82s1.82.81,1.82,1.82-.81,1.82-1.82,1.82-1.82-.81-1.82-1.82ZM788.92,509.08c-1,0-1.82-.81-1.82-1.82s.81-1.82,1.82-1.82,1.82.81,1.82,1.82-.81,1.82-1.82,1.82ZM212.45,357.9c-13.14.11-24.39-1.43-37.1-3.74-.25-.06-.51-.13-.76-.19l-3.67,4.84,10.22,10.01-10.16,8.47,8.32,10.51-8.39,6.91,6.71,10.56-6.12,10.92,6.1,9-5.96,13.13,6.01,7.73-6.89,12.72,6.87,10.99-6.85,11.51,6.84,10.33-6.91,12.79,5.6,13.12c4.06,2.06,9.06,1.7,13.49.61-5.65-18.51-7.28-37.39-6.72-56.83.17-6.11,2.41-11.64,4.84-16.91-2.31-6.43-3.91-13.16-4-20.06l-.52-41.35c11.03-4.6,19.44,2.87,28.07,9.37,1.42-6.11-1.56-12.45-.82-18,.73-5.49,1.69-10.85,1.79-16.45ZM187.86,373.35c-1,0-1.82-.81-1.82-1.82s.81-1.82,1.82-1.82,1.82.81,1.82,1.82-.81,1.82-1.82,1.82ZM196.26,369.09c-1,0-1.82-.81-1.82-1.82s.81-1.82,1.82-1.82,1.82.81,1.82,1.82-.81,1.82-1.82,1.82ZM203.22,372.41c-1,0-1.82-.81-1.82-1.82s.81-1.82,1.82-1.82,1.82.81,1.82,1.82-.81,1.82-1.82,1.82Z"/>
      </g>
    </g>
  </g>
</svg>